<svg width="42" height="42" viewBox="0 0 42 42" fill="none" xmlns="http://www.w3.org/2000/svg">
<rect x="0.5" y="0.5" width="41" height="41" rx="6" fill="white"/>
<path d="M22.312 32.32C19.816 32.32 17.704 31.8507 15.976 30.912C14.2693 29.9733 12.968 28.64 12.072 26.912C11.176 25.184 10.728 23.136 10.728 20.768C10.728 18.3787 11.1867 16.32 12.104 14.592C13.0213 12.8427 14.344 11.4987 16.072 10.56C17.8 9.6 19.8693 9.12 22.28 9.12C23.8587 9.12 25.3413 9.35467 26.728 9.824C28.1147 10.272 29.2667 10.9013 30.184 11.712L28.808 14.912C27.8053 14.1227 26.7813 13.5573 25.736 13.216C24.6907 12.8747 23.5387 12.704 22.28 12.704C19.8907 12.704 18.0773 13.3973 16.84 14.784C15.624 16.1707 15.016 18.1653 15.016 20.768C15.016 23.392 15.6453 25.3867 16.904 26.752C18.1627 28.1173 20.0293 28.8 22.504 28.8C23.208 28.8 23.9227 28.7467 24.648 28.64C25.3947 28.512 26.1307 28.3307 26.856 28.096V22.848H21.672V19.808H30.28V30.656C29.2347 31.168 27.9973 31.5733 26.568 31.872C25.1387 32.1707 23.72 32.32 22.312 32.32Z" fill="#1161D6"/>
<rect x="0.5" y="0.5" width="41" height="41" rx="6" stroke="white"/>
</svg>
