<svg width="20" height="20" viewBox="0 0 20 20" fill="none" xmlns="http://www.w3.org/2000/svg">
<path d="M5.00001 5V14.8333C5.00001 15.7668 5.00001 16.2331 5.18167 16.5897C5.34145 16.9033 5.59624 17.1587 5.90984 17.3185C6.26601 17.5 6.7325 17.5 7.6641 17.5H12.3359C13.2675 17.5 13.7333 17.5 14.0895 17.3185C14.4031 17.1587 14.6587 16.9033 14.8185 16.5897C15 16.2335 15 15.7675 15 14.8359V5M5.00001 5H6.66668M5.00001 5H3.33334M6.66668 5H13.3333M6.66668 5C6.66668 4.22343 6.66668 3.83534 6.79354 3.52905C6.9627 3.12067 7.28694 2.79602 7.69532 2.62687C8.00161 2.5 8.39011 2.5 9.16668 2.5H10.8333C11.6099 2.5 11.9982 2.5 12.3045 2.62687C12.7129 2.79602 13.0372 3.12067 13.2064 3.52905C13.3333 3.83534 13.3333 4.22343 13.3333 5M13.3333 5H15M15 5H16.6667" stroke="#1161D6" stroke-width="2" stroke-linecap="round" stroke-linejoin="round"/>
</svg>
